<svg id="visual" viewBox="0 0 960 540" width="960" height="540" xmlns="http://www.w3.org/2000/svg" xmlns:xlink="http://www.w3.org/1999/xlink" version="1.1"><rect x="0" y="0" width="960" height="540" fill="#ebecf0"></rect><g transform="translate(469.6000343192941 286.18638012518284)"><path d="M133.5 -212.3C169.8 -184.5 193.6 -141.9 209.2 -98.3C224.8 -54.7 232.2 -10.1 226.7 33C221.2 76.2 202.8 118 173 147C143.3 175.9 102.2 192.1 60.5 203C18.7 214 -23.8 219.7 -66.1 212.9C-108.4 206 -150.5 186.5 -172.9 153.7C-195.3 120.9 -197.9 74.9 -202.3 30.4C-206.7 -14.2 -213 -57.1 -199.7 -93.3C-186.5 -129.6 -153.8 -159 -117.3 -186.6C-80.7 -214.3 -40.4 -240.1 4.1 -246.6C48.7 -253 97.3 -240.1 133.5 -212.3" fill="#001829"></path></g></svg>