<svg id="visual" viewBox="0 0 960 540" width="960" height="540" xmlns="http://www.w3.org/2000/svg" xmlns:xlink="http://www.w3.org/1999/xlink" version="1.1"><rect x="0" y="0" width="960" height="540" fill="#ebecf0"></rect><g transform="translate(478.9380514022386 263.698699142784)"><path d="M127.4 -194.2C166.8 -172.8 201.6 -140.4 220.4 -100.4C239.2 -60.3 241.8 -12.6 234.5 33.3C227.2 79.1 210 123 180.4 155.4C150.9 187.8 109.1 208.5 64.3 223.9C19.5 239.2 -28.3 249.1 -70.9 238.1C-113.4 227.1 -150.8 195.1 -180 157.9C-209.3 120.8 -230.3 78.5 -235.1 34.8C-239.8 -8.9 -228.1 -53.9 -210.3 -97.3C-192.4 -140.8 -168.4 -182.7 -132.3 -205.6C-96.2 -228.5 -48.1 -232.4 -2.1 -229.2C44 -225.9 87.9 -215.6 127.4 -194.2" fill="#0f62fe"></path></g></svg>