<svg id="visual" viewBox="0 0 960 540" width="960" height="540" xmlns="http://www.w3.org/2000/svg" xmlns:xlink="http://www.w3.org/1999/xlink" version="1.1"><rect width="960" height="540" fill="#001829"></rect><g><g transform="translate(909 246)"><path d="M0 -121.2L104.9 -60.6L104.9 60.6L0 121.2L-104.9 60.6L-104.9 -60.6Z" fill="none" stroke="#297EA6" stroke-width="2"></path></g><g transform="translate(223 478)"><path d="M0 -101L87.5 -50.5L87.5 50.5L0 101L-87.5 50.5L-87.5 -50.5Z" fill="none" stroke="#297EA6" stroke-width="2"></path></g><g transform="translate(665 1)"><path d="M0 -100L86.6 -50L86.6 50L0 100L-86.6 50L-86.6 -50Z" fill="none" stroke="#297EA6" stroke-width="2"></path></g><g transform="translate(214 60)"><path d="M0 -63L54.6 -31.5L54.6 31.5L0 63L-54.6 31.5L-54.6 -31.5Z" stroke="#297EA6" fill="none" stroke-width="2"></path></g><g transform="translate(27 274)"><path d="M0 -62L53.7 -31L53.7 31L0 62L-53.7 31L-53.7 -31Z" stroke="#297EA6" fill="none" stroke-width="2"></path></g></g></svg>