<?xml version="1.0" encoding="iso-8859-1"?>
<!-- Generator: Adobe Illustrator 19.0.0, SVG Export Plug-In . SVG Version: 6.00 Build 0)  -->
<svg version="1.1" id="Layer_1" xmlns="http://www.w3.org/2000/svg" xmlns:xlink="http://www.w3.org/1999/xlink" x="0px" y="0px"
	 viewBox="0 0 511.999 511.999" style="enable-background:new 0 0 511.999 511.999;" xml:space="preserve">
<circle style="fill:#73AFD6;" cx="243.769" cy="256" r="183.191"/>
<g>
	<path style="fill:#54CE8E;" d="M267.311,227.801l-40.467,16.713v53.658h51.117l23.429-35.221l41.533,9.961l21.299-22.662
		l62.672-1.22c-2.884-77.031-53.32-141.888-122.814-166.075c-16.151,24.9-44.222,71.451-44.222,71.451L267.311,227.801z"/>
	<path style="fill:#54CE8E;" d="M103.31,303.495c0-3.195,38.338-30.586,38.338-30.586l17.04-45.111l-45.753-99.929
		C80.596,160.906,60.653,206.12,60.653,256c0,36.523,10.692,70.546,29.111,99.119l13.547-19.592
		C103.31,335.527,103.31,306.692,103.31,303.495z"/>
	<path style="fill:#54CE8E;" d="M232.365,335.527l-39.601,30.8l-5.65,63.898c17.864,5.813,36.928,8.968,56.731,8.968
		c14.171,0,27.966-1.611,41.213-4.656c-6.296-24.068-18.812-72.208-18.812-74.599C266.246,356.743,232.365,335.527,232.365,335.527z
		"/>
</g>
<path style="opacity:0.34;fill:#174F79;enable-background:new    ;" d="M426.893,249.029c-0.174-4.66-0.544-9.268-1.061-13.833
	c-8.626,77.774-65.939,140.863-140.779,158.1c0.001,0.005,0.003,0.01,0.004,0.016c-2.862,0.658-5.752,1.235-8.663,1.757
	c-0.084,0.016-0.169,0.031-0.253,0.047c-1.248,0.222-2.501,0.426-3.758,0.623c-0.359,0.056-0.718,0.115-1.079,0.169
	c-1.123,0.169-2.252,0.325-3.382,0.473c-0.503,0.067-1.007,0.131-1.51,0.194c-1.046,0.128-2.094,0.249-3.145,0.359
	c-0.603,0.064-1.207,0.123-1.812,0.181c-0.983,0.094-1.966,0.184-2.954,0.262c-0.7,0.055-1.403,0.102-2.105,0.149
	c-0.911,0.062-1.822,0.125-2.739,0.173c-0.842,0.045-1.687,0.075-2.533,0.107c-0.79,0.031-1.578,0.069-2.371,0.09
	c-1.42,0.038-2.846,0.055-4.274,0.06c-0.212,0.001-0.423,0.009-0.636,0.009c-0.01,0-0.02,0-0.03,0c-0.016,0-0.031,0-0.047,0
	c-2.243,0-4.473-0.055-6.698-0.135c-0.378-0.013-0.755-0.028-1.131-0.043c-90.644-3.812-164.244-73.482-174.204-162.402
	c-0.758,6.767-1.16,13.642-1.16,20.611c0,98.551,77.823,178.913,175.364,183.015c0.376,0.016,0.754,0.029,1.131,0.043
	c2.223,0.08,4.453,0.135,6.698,0.135c0.016,0,0.031,0,0.047,0c0.01,0,0.02,0,0.03,0c0.212,0,0.423-0.008,0.636-0.009
	c1.428-0.005,2.854-0.022,4.274-0.06c0.793-0.021,1.581-0.059,2.372-0.09c0.844-0.033,1.69-0.063,2.533-0.108
	c0.915-0.048,1.826-0.111,2.739-0.173c0.703-0.047,1.405-0.094,2.105-0.149c0.987-0.079,1.97-0.168,2.954-0.262
	c0.604-0.058,1.209-0.117,1.812-0.181c1.051-0.111,2.099-0.231,3.145-0.359c0.505-0.062,1.008-0.127,1.51-0.194
	c1.13-0.148,2.259-0.304,3.382-0.473c0.36-0.054,0.718-0.113,1.079-0.169c1.256-0.197,2.51-0.401,3.758-0.623
	c0.084-0.016,0.169-0.031,0.253-0.047c2.91-0.522,5.802-1.1,8.663-1.757c-0.001-0.005-0.003-0.01-0.004-0.016
	c81.291-18.724,141.906-91.543,141.906-178.521c0-2.335-0.059-4.656-0.146-6.97L426.893,249.029z"/>
<path d="M309.001,74.33c-0.225-0.1-0.451-0.199-0.688-0.282c-0.203-0.072-0.397-0.113-0.596-0.17
	c-20.025-7.052-41.544-10.902-63.949-10.902c-53.509,0-101.998,21.891-136.993,57.182c-0.691,0.544-1.302,1.167-1.813,1.856
	c-33.547,34.741-54.218,81.993-54.218,133.987c0,38.005,11.047,73.478,30.09,103.385c0.354,0.735,0.804,1.428,1.341,2.065
	c34.501,52.692,94.045,87.576,161.594,87.576c14.702,0,29.022-1.66,42.79-4.788c0.142-0.03,0.284-0.045,0.426-0.081
	c0.043-0.01,0.083-0.028,0.126-0.039c85.634-19.722,149.683-96.579,149.683-188.117c0-47.696-17.397-91.4-46.17-125.119
	l24.504-24.503l11.325,51.06c1.017,4.584,5.081,7.704,9.59,7.704c0.705,0,1.421-0.076,2.138-0.235
	c5.301-1.176,8.646-6.426,7.47-11.728l-14.038-63.287l13.115-13.115c3.84-3.84,3.84-10.065,0-13.904
	c-3.84-3.841-10.065-3.84-13.904,0l-13.115,13.115l-63.287-14.038c-5.299-1.173-10.552,2.17-11.728,7.47
	c-1.176,5.301,2.168,10.552,7.47,11.728l51.06,11.325l-24.102,24.102C357.798,98.086,334.65,83.569,309.001,74.33z M277.016,226.807
	l-7.126-70.159c14.774-24.739,31.018-51.077,38.231-61.617c20,8.024,38.165,19.675,53.688,34.13l-18.838-4.178
	c-5.304-1.175-10.552,2.168-11.728,7.47c-1.175,5.301,2.168,10.552,7.47,11.728l20.22,4.485l4.485,20.22
	c1.017,4.584,5.08,7.706,9.59,7.704c0.705,0,1.421-0.076,2.138-0.235c5.301-1.176,8.646-6.426,7.47-11.728l-3.819-17.218
	c20.696,25.684,34.227,57.364,37.532,91.989l-52.379,1.02c-2.647,0.051-5.161,1.168-6.973,3.096l-17.39,18.503l-35.984-8.63
	c-4.009-0.962-8.195,0.682-10.48,4.115l-20.511,30.835h-36.014v-37.249l34.389-14.203
	C275.003,235.228,277.455,231.13,277.016,226.807z M110.176,145.634l37.786,82.53l-14.542,38.498
	c-3.495,2.524-10.253,7.438-16.949,12.501C95.528,294.999,93.4,297.912,93.4,303.497v28.963l-2.985,4.317
	C77.651,312.639,70.407,285.153,70.407,256C70.408,214.105,85.347,175.636,110.176,145.634z M197.539,423.092l4.566-51.633
	l30.757-23.923c10.099,6.493,20.382,13.518,24.126,16.691c1.245,6.081,4.878,21.478,15.436,62.751
	c-9.326,1.557-18.896,2.382-28.657,2.382C227.764,429.361,212.263,427.171,197.539,423.092z M256.38,360.731
	c0.03,0.283,0.079,0.649,0.168,1.179C256.468,361.546,256.416,361.147,256.38,360.731z M291.616,422.641
	c-6.435-25.2-14.756-58.341-15.632-63.427c-0.279-5.648-4.086-9.27-21.263-20.836c-8.507-5.729-16.861-10.965-17.213-11.185
	c-3.499-2.191-7.995-1.964-11.254,0.573l-39.601,30.8c-2.156,1.677-3.517,4.174-3.757,6.894l-4.517,51.083
	c-31.109-12.717-57.723-34.219-76.746-61.412l9.69-14.013c1.137-1.643,1.745-3.595,1.745-5.592v-28.508
	c5.377-4.877,20.915-16.6,34.221-26.109c1.584-1.131,2.795-2.706,3.482-4.525l17.04-45.111c0.928-2.457,0.835-5.181-0.258-7.567
	l-42.851-93.59c31.08-29.412,73.002-47.478,119.067-47.478c15.57,0,30.662,2.075,45.025,5.942c-0.018,0.029-0.037,0.055-0.055,0.084
	c-3.908,5.941-9.158,14.259-15.603,24.72c-10.927,17.734-21.695,35.807-21.802,35.988c-1.08,1.813-1.548,3.925-1.335,6.025
	l6.715,66.109l-33.699,13.918c-3.68,1.519-6.079,5.107-6.079,9.087v53.658c0,5.43,4.402,9.832,9.832,9.832h51.117
	c3.29,0,6.363-1.647,8.187-4.386l19.626-29.504l34.857,8.359c3.429,0.823,7.041-0.254,9.457-2.828l18.463-19.646l48.617-0.946
	C415.742,336.716,363.076,402.092,291.616,422.641z"/>
<path d="M509.13,256.008l-24.463-24.538c-3.773-3.783-9.878-3.862-13.746-0.176l-25.746,24.538
	c-3.931,3.747-4.081,9.97-0.334,13.901c1.932,2.027,4.523,3.049,7.118,3.049c2.437,0,4.879-0.901,6.781-2.715l9.061-8.636
	c-2.895,121.072-102.279,218.672-224.035,218.672C120.197,480.104,19.664,379.572,19.664,256S120.197,31.895,243.768,31.895
	c5.43,0,9.832-4.402,9.832-9.832s-4.402-9.832-9.832-9.832C109.355,12.231,0,121.586,0,256s109.355,243.768,243.768,243.768
	c132.368,0,240.43-106.05,243.69-237.646l7.745,7.77c3.833,3.845,10.059,3.854,13.905,0.021
	C512.954,266.08,512.964,259.854,509.13,256.008z"/>
<g>
</g>
<g>
</g>
<g>
</g>
<g>
</g>
<g>
</g>
<g>
</g>
<g>
</g>
<g>
</g>
<g>
</g>
<g>
</g>
<g>
</g>
<g>
</g>
<g>
</g>
<g>
</g>
<g>
</g>
</svg>
